<?xml version="1.0" encoding="UTF-8" standalone="no"?><svg xmlns="http://www.w3.org/2000/svg" xmlns:xlink="http://www.w3.org/1999/xlink" contentScriptType="application/ecmascript" contentStyleType="text/css" height="3450px" preserveAspectRatio="none" style="width:3537px;height:3450px;background:#00000000;" version="1.1" viewBox="0 0 3537 3450" width="3537.5px" zoomAndPan="magnify"><defs/><g><rect fill="#FFFFFF" height="153.8086" style="stroke:#9496A1;stroke-width:3.125;" width="31.25" x="1718.75" y="372.5586"/><rect fill="#FFFFFF" height="1174.2188" style="stroke:#9496A1;stroke-width:3.125;" width="31.25" x="1718.75" y="1075.293"/><rect fill="#FFFFFF" height="668.8965" style="stroke:#9496A1;stroke-width:3.125;" width="31.25" x="1718.75" y="2465.8203"/><rect fill="#FFFFFF" height="87.5" style="stroke:#9496A1;stroke-width:3.125;" width="31.25" x="1734.375" y="2589.5996"/><rect fill="#FFFFFF" height="351.3672" style="stroke:#9496A1;stroke-width:3.125;" width="31.25" x="2421.875" y="625.1465"/><rect fill="#FFFFFF" height="458.3008" style="stroke:#9496A1;stroke-width:3.125;" width="31.25" x="2421.875" y="1394.1895"/><rect fill="#FFFFFF" height="238.1836" style="stroke:#9496A1;stroke-width:3.125;" width="31.25" x="3121.875" y="2797.7539"/><rect fill="#FFFFFF" height="328.2715" style="stroke:#000000;stroke-width:6.25;" width="1812.5" x="31.25" y="1899.3652"/><rect fill="#FFFFFF" height="160.0586" style="stroke:none;stroke-width:3.125;" width="1812.5" x="31.25" y="2067.5781"/><line style="stroke:#9496A1;stroke-width:3.125;" x1="237.5" x2="237.5" y1="267.5293" y2="2249.5117"/><line style="stroke:#9496A1;stroke-width:3.125;stroke-dasharray:1.0,4.0;" x1="237.5" x2="237.5" y1="2249.5117" y2="2392.041"/><line style="stroke:#9496A1;stroke-width:3.125;" x1="237.5" x2="237.5" y1="2392.041" y2="3190.9668"/><line style="stroke:#9496A1;stroke-width:3.125;" x1="1734.375" x2="1734.375" y1="267.5293" y2="2249.5117"/><line style="stroke:#9496A1;stroke-width:3.125;stroke-dasharray:1.0,4.0;" x1="1734.375" x2="1734.375" y1="2249.5117" y2="2392.041"/><line style="stroke:#9496A1;stroke-width:3.125;" x1="1734.375" x2="1734.375" y1="2392.041" y2="3190.9668"/><line style="stroke:#9496A1;stroke-width:3.125;" x1="2437.5" x2="2437.5" y1="267.5293" y2="2249.5117"/><line style="stroke:#9496A1;stroke-width:3.125;stroke-dasharray:1.0,4.0;" x1="2437.5" x2="2437.5" y1="2249.5117" y2="2392.041"/><line style="stroke:#9496A1;stroke-width:3.125;" x1="2437.5" x2="2437.5" y1="2392.041" y2="3190.9668"/><line style="stroke:#9496A1;stroke-width:3.125;" x1="3135.9375" x2="3135.9375" y1="267.5293" y2="2249.5117"/><line style="stroke:#9496A1;stroke-width:3.125;stroke-dasharray:1.0,4.0;" x1="3135.9375" x2="3135.9375" y1="2249.5117" y2="2392.041"/><line style="stroke:#9496A1;stroke-width:3.125;" x1="3135.9375" x2="3135.9375" y1="2392.041" y2="3190.9668"/><text fill="#282A3A" font-family="sans-serif" font-size="43.75" lengthAdjust="spacing" textLength="331.25" x="62.5" y="257.9163">Resource Owner</text><ellipse cx="237.5" cy="46.875" fill="#FFFFFF" rx="25" ry="25" style="stroke:#9496A1;stroke-width:6.25;"/><path d="M237.5,71.875 L237.5,156.25 M196.875,96.875 L278.125,96.875 M237.5,156.25 L196.875,203.125 M237.5,156.25 L278.125,203.125 " fill="none" style="stroke:#9496A1;stroke-width:6.25;"/><text fill="#282A3A" font-family="sans-serif" font-size="43.75" lengthAdjust="spacing" textLength="331.25" x="62.5" y="3233.2581">Resource Owner</text><ellipse cx="237.5" cy="3274.1211" fill="#FFFFFF" rx="25" ry="25" style="stroke:#9496A1;stroke-width:6.25;"/><path d="M237.5,3299.1211 L237.5,3383.4961 M196.875,3324.1211 L278.125,3324.1211 M237.5,3383.4961 L196.875,3430.3711 M237.5,3383.4961 L278.125,3430.3711 " fill="none" style="stroke:#9496A1;stroke-width:6.25;"/><rect fill="#F3F4F8" height="98.7793" style="stroke:#9496A1;stroke-width:4.6875;" width="156.25" x="1656.25" y="165.625"/><text fill="#282A3A" font-family="sans-serif" font-size="43.75" lengthAdjust="spacing" textLength="112.5" x="1678.125" y="232.9163">Client</text><rect fill="#F3F4F8" height="98.7793" style="stroke:#9496A1;stroke-width:4.6875;" width="156.25" x="1656.25" y="3187.8418"/><text fill="#282A3A" font-family="sans-serif" font-size="43.75" lengthAdjust="spacing" textLength="112.5" x="1678.125" y="3255.1331">Client</text><rect fill="#F3F4F8" height="98.7793" style="stroke:#9496A1;stroke-width:4.6875;" width="443.75" x="2215.625" y="165.625"/><text fill="#282A3A" font-family="sans-serif" font-size="43.75" lengthAdjust="spacing" textLength="400" x="2237.5" y="232.9163">Authorization Server</text><rect fill="#F3F4F8" height="98.7793" style="stroke:#9496A1;stroke-width:4.6875;" width="443.75" x="2215.625" y="3187.8418"/><text fill="#282A3A" font-family="sans-serif" font-size="43.75" lengthAdjust="spacing" textLength="400" x="2237.5" y="3255.1331">Authorization Server</text><rect fill="#F3F4F8" height="98.7793" style="stroke:#9496A1;stroke-width:4.6875;" width="378.125" x="2948.4375" y="165.625"/><text fill="#282A3A" font-family="sans-serif" font-size="43.75" lengthAdjust="spacing" textLength="334.375" x="2970.3125" y="232.9163">Resource Server</text><rect fill="#F3F4F8" height="98.7793" style="stroke:#9496A1;stroke-width:4.6875;" width="378.125" x="2948.4375" y="3187.8418"/><text fill="#282A3A" font-family="sans-serif" font-size="43.75" lengthAdjust="spacing" textLength="334.375" x="2970.3125" y="3255.1331">Resource Server</text><rect fill="#FFFFFF" height="153.8086" style="stroke:#9496A1;stroke-width:3.125;" width="31.25" x="1718.75" y="372.5586"/><rect fill="#FFFFFF" height="1174.2188" style="stroke:#9496A1;stroke-width:3.125;" width="31.25" x="1718.75" y="1075.293"/><rect fill="#FFFFFF" height="668.8965" style="stroke:#9496A1;stroke-width:3.125;" width="31.25" x="1718.75" y="2465.8203"/><rect fill="#FFFFFF" height="87.5" style="stroke:#9496A1;stroke-width:3.125;" width="31.25" x="1734.375" y="2589.5996"/><rect fill="#FFFFFF" height="351.3672" style="stroke:#9496A1;stroke-width:3.125;" width="31.25" x="2421.875" y="625.1465"/><rect fill="#FFFFFF" height="458.3008" style="stroke:#9496A1;stroke-width:3.125;" width="31.25" x="2421.875" y="1394.1895"/><rect fill="#FFFFFF" height="238.1836" style="stroke:#9496A1;stroke-width:3.125;" width="31.25" x="3121.875" y="2797.7539"/><polygon fill="#B3B5BD" points="1681.25,360.0586,1712.5,372.5586,1681.25,385.0586,1693.75,372.5586" style="stroke:#B3B5BD;stroke-width:3.125;"/><line style="stroke:#B3B5BD;stroke-width:3.125;" x1="237.5" x2="1700" y1="372.5586" y2="372.5586"/><text fill="#282A3A" font-family="sans-serif" font-size="43.75" lengthAdjust="spacing" textLength="525" x="259.375" y="356.6956">Richiesta di autenticazione</text><polygon fill="#B3B5BD" points="271.875,513.8672,240.625,526.3672,271.875,538.8672,259.375,526.3672" style="stroke:#B3B5BD;stroke-width:3.125;"/><line style="stroke:#B3B5BD;stroke-width:3.125;stroke-dasharray:2.0,2.0;" x1="253.125" x2="1731.25" y1="526.3672" y2="526.3672"/><text fill="#282A3A" font-family="sans-serif" font-size="43.75" lengthAdjust="spacing" textLength="296.875" x="290.625" y="455.4749">Reidirect verso</text><text fill="#282A3A" font-family="sans-serif" font-size="43.75" lengthAdjust="spacing" textLength="850" x="290.625" y="510.5042">/authorize?response_type=code&amp;client_id=</text><path d="M1148.8906,480.013 L1143.75,485.1536 L1146.375,487.7786 L1152.8646,494.3776 L1146.375,500.8672 L1143.75,503.3828 L1148.8906,508.6328 L1151.5156,506.0078 L1158.1146,499.4089 L1164.6042,506.0078 L1167.1198,508.6328 L1172.3698,503.3828 L1169.7448,500.8672 L1163.1458,494.3776 L1169.7448,487.7786 L1172.3698,485.1536 L1167.1198,480.013 L1164.6042,482.638 L1158.1146,489.1276 L1151.5156,482.638 L1148.8906,480.013 " fill="#282A3A" style="stroke:;stroke-width:0.0;stroke-dasharray:;"/><text fill="#282A3A" font-family="sans-serif" font-size="43.75" lengthAdjust="spacing" textLength="278.125" x="1176.0417" y="510.5042">&amp;redirect_uri=</text><path d="M1462.4323,480.013 L1457.2917,485.1536 L1459.9167,487.7786 L1466.4063,494.3776 L1459.9167,500.8672 L1457.2917,503.3828 L1462.4323,508.6328 L1465.0573,506.0078 L1471.6563,499.4089 L1478.1458,506.0078 L1480.6615,508.6328 L1485.9115,503.3828 L1483.2865,500.8672 L1476.6875,494.3776 L1483.2865,487.7786 L1485.9115,485.1536 L1480.6615,480.013 L1478.1458,482.638 L1471.6563,489.1276 L1465.0573,482.638 L1462.4323,480.013 " fill="#282A3A" style="stroke:;stroke-width:0.0;stroke-dasharray:;"/><text fill="#282A3A" font-family="sans-serif" font-size="43.75" lengthAdjust="spacing" textLength="171.875" x="1489.5833" y="510.5042">&amp;scope=</text><path d="M1669.724,480.013 L1664.5833,485.1536 L1667.2083,487.7786 L1673.6979,494.3776 L1667.2083,500.8672 L1664.5833,503.3828 L1669.724,508.6328 L1672.349,506.0078 L1678.9479,499.4089 L1685.4375,506.0078 L1687.9531,508.6328 L1693.2031,503.3828 L1690.5781,500.8672 L1683.9792,494.3776 L1690.5781,487.7786 L1693.2031,485.1536 L1687.9531,480.013 L1685.4375,482.638 L1678.9479,489.1276 L1672.349,482.638 L1669.724,480.013 " fill="#282A3A" style="stroke:;stroke-width:0.0;stroke-dasharray:;"/><polygon fill="#B3B5BD" points="2384.375,612.6465,2415.625,625.1465,2384.375,637.6465,2396.875,625.1465" style="stroke:#B3B5BD;stroke-width:3.125;"/><line style="stroke:#B3B5BD;stroke-width:3.125;" x1="237.5" x2="2403.125" y1="625.1465" y2="625.1465"/><text fill="#282A3A" font-family="sans-serif" font-size="43.75" lengthAdjust="spacing" textLength="953.125" x="259.375" y="609.2834">GET /authorize?response_type=code&amp;client_id=</text><path d="M1220.7656,578.7923 L1215.625,583.9329 L1218.25,586.5579 L1224.7396,593.1569 L1218.25,599.6465 L1215.625,602.1621 L1220.7656,607.4121 L1223.3906,604.7871 L1229.9896,598.1882 L1236.4792,604.7871 L1238.9948,607.4121 L1244.2448,602.1621 L1241.6198,599.6465 L1235.0208,593.1569 L1241.6198,586.5579 L1244.2448,583.9329 L1238.9948,578.7923 L1236.4792,581.4173 L1229.9896,587.9069 L1223.3906,581.4173 L1220.7656,578.7923 " fill="#282A3A" style="stroke:;stroke-width:0.0;stroke-dasharray:;"/><text fill="#282A3A" font-family="sans-serif" font-size="43.75" lengthAdjust="spacing" textLength="278.125" x="1247.9167" y="609.2834">&amp;redirect_uri=</text><path d="M1534.3073,578.7923 L1529.1667,583.9329 L1531.7917,586.5579 L1538.2813,593.1569 L1531.7917,599.6465 L1529.1667,602.1621 L1534.3073,607.4121 L1536.9323,604.7871 L1543.5313,598.1882 L1550.0208,604.7871 L1552.5365,607.4121 L1557.7865,602.1621 L1555.1615,599.6465 L1548.5625,593.1569 L1555.1615,586.5579 L1557.7865,583.9329 L1552.5365,578.7923 L1550.0208,581.4173 L1543.5313,587.9069 L1536.9323,581.4173 L1534.3073,578.7923 " fill="#282A3A" style="stroke:;stroke-width:0.0;stroke-dasharray:;"/><text fill="#282A3A" font-family="sans-serif" font-size="43.75" lengthAdjust="spacing" textLength="171.875" x="1561.4583" y="609.2834">&amp;scope=</text><path d="M1741.599,578.7923 L1736.4583,583.9329 L1739.0833,586.5579 L1745.5729,593.1569 L1739.0833,599.6465 L1736.4583,602.1621 L1741.599,607.4121 L1744.224,604.7871 L1750.8229,598.1882 L1757.3125,604.7871 L1759.8281,607.4121 L1765.0781,602.1621 L1762.4531,599.6465 L1755.8542,593.1569 L1762.4531,586.5579 L1765.0781,583.9329 L1759.8281,578.7923 L1757.3125,581.4173 L1750.8229,587.9069 L1744.224,581.4173 L1741.599,578.7923 " fill="#282A3A" style="stroke:;stroke-width:0.0;stroke-dasharray:;"/><polygon fill="#B3B5BD" points="2384.375,711.4258,2415.625,723.9258,2384.375,736.4258,2396.875,723.9258" style="stroke:#B3B5BD;stroke-width:3.125;"/><line style="stroke:#B3B5BD;stroke-width:3.125;" x1="237.5" x2="2403.125" y1="723.9258" y2="723.9258"/><text fill="#282A3A" font-family="sans-serif" font-size="43.75" lengthAdjust="spacing" textLength="390.625" x="259.375" y="708.0627">Inserisce credentiali</text><polygon fill="#B3B5BD" points="2384.375,810.2051,2415.625,822.7051,2384.375,835.2051,2396.875,822.7051" style="stroke:#B3B5BD;stroke-width:3.125;"/><line style="stroke:#B3B5BD;stroke-width:3.125;" x1="237.5" x2="2403.125" y1="822.7051" y2="822.7051"/><text fill="#282A3A" font-family="sans-serif" font-size="43.75" lengthAdjust="spacing" textLength="546.875" x="259.375" y="806.842">Fornisce i permessi richiesti</text><polygon fill="#B3B5BD" points="271.875,964.0137,240.625,976.5137,271.875,989.0137,259.375,976.5137" style="stroke:#B3B5BD;stroke-width:3.125;"/><line style="stroke:#B3B5BD;stroke-width:3.125;stroke-dasharray:2.0,2.0;" x1="253.125" x2="2434.375" y1="976.5137" y2="976.5137"/><text fill="#282A3A" font-family="sans-serif" font-size="43.75" lengthAdjust="spacing" textLength="287.5" x="290.625" y="905.6213">Redirect verso</text><text fill="#282A3A" font-family="sans-serif" font-size="43.75" font-weight="bold" lengthAdjust="spacing" textLength="259.375" x="290.625" y="960.6506">redirect_uri</text><text fill="#282A3A" font-family="sans-serif" font-size="43.75" lengthAdjust="spacing" textLength="146.875" x="550" y="960.6506">?code=</text><path d="M705.1406,930.1595 L700,935.3001 L702.625,937.9251 L709.1146,944.5241 L702.625,951.0137 L700,953.5293 L705.1406,958.7793 L707.7656,956.1543 L714.3646,949.5553 L720.8542,956.1543 L723.3698,958.7793 L728.6198,953.5293 L725.9948,951.0137 L719.3958,944.5241 L725.9948,937.9251 L728.6198,935.3001 L723.3698,930.1595 L720.8542,932.7845 L714.3646,939.2741 L707.7656,932.7845 L705.1406,930.1595 " fill="#282A3A" style="stroke:;stroke-width:0.0;stroke-dasharray:;"/><polygon fill="#B3B5BD" points="1681.25,1062.793,1712.5,1075.293,1681.25,1087.793,1693.75,1075.293" style="stroke:#B3B5BD;stroke-width:3.125;"/><line style="stroke:#B3B5BD;stroke-width:3.125;" x1="237.5" x2="1700" y1="1075.293" y2="1075.293"/><text fill="#282A3A" font-family="sans-serif" font-size="43.75" lengthAdjust="spacing" textLength="90.625" x="259.375" y="1059.4299">GET</text><text fill="#282A3A" font-family="sans-serif" font-size="43.75" font-weight="bold" lengthAdjust="spacing" textLength="259.375" x="362.5" y="1059.4299">redirect_uri</text><text fill="#282A3A" font-family="sans-serif" font-size="43.75" lengthAdjust="spacing" textLength="146.875" x="621.875" y="1059.4299">?code=</text><path d="M777.0156,1028.9388 L771.875,1034.0794 L774.5,1036.7044 L780.9896,1043.3034 L774.5,1049.793 L771.875,1052.3086 L777.0156,1057.5586 L779.6406,1054.9336 L786.2396,1048.3346 L792.7292,1054.9336 L795.2448,1057.5586 L800.4948,1052.3086 L797.8698,1049.793 L791.2708,1043.3034 L797.8698,1036.7044 L800.4948,1034.0794 L795.2448,1028.9388 L792.7292,1031.5638 L786.2396,1038.0534 L779.6406,1031.5638 L777.0156,1028.9388 " fill="#282A3A" style="stroke:;stroke-width:0.0;stroke-dasharray:;"/><polygon fill="#B3B5BD" points="2384.375,1381.6895,2415.625,1394.1895,2384.375,1406.6895,2396.875,1394.1895" style="stroke:#B3B5BD;stroke-width:3.125;"/><line style="stroke:#B3B5BD;stroke-width:3.125;" x1="1750" x2="2403.125" y1="1394.1895" y2="1394.1895"/><text fill="#282A3A" font-family="sans-serif" font-size="43.75" lengthAdjust="spacing" textLength="253.125" x="1771.875" y="1158.2092">POST /token</text><text fill="#282A3A" font-family="sans-serif" font-size="43.75" lengthAdjust="spacing" textLength="612.5" x="1771.875" y="1213.2385">grant_type=authorization_code</text><text fill="#282A3A" font-family="sans-serif" font-size="43.75" lengthAdjust="spacing" textLength="121.875" x="1771.875" y="1268.2678">code=</text><path d="M1902.0156,1237.7767 L1896.875,1242.9173 L1899.5,1245.5423 L1905.9896,1252.1413 L1899.5,1258.6309 L1896.875,1261.1465 L1902.0156,1266.3965 L1904.6406,1263.7715 L1911.2396,1257.1725 L1917.7292,1263.7715 L1920.2448,1266.3965 L1925.4948,1261.1465 L1922.8698,1258.6309 L1916.2708,1252.1413 L1922.8698,1245.5423 L1925.4948,1242.9173 L1920.2448,1237.7767 L1917.7292,1240.4017 L1911.2396,1246.8913 L1904.6406,1240.4017 L1902.0156,1237.7767 " fill="#282A3A" style="stroke:;stroke-width:0.0;stroke-dasharray:;"/><text fill="#282A3A" font-family="sans-serif" font-size="43.75" lengthAdjust="spacing" textLength="250" x="1771.875" y="1323.2971">redirect_uri=</text><path d="M2030.1406,1292.806 L2025,1297.9466 L2027.625,1300.5716 L2034.1146,1307.1706 L2027.625,1313.6602 L2025,1316.1758 L2030.1406,1321.4258 L2032.7656,1318.8008 L2039.3646,1312.2018 L2045.8542,1318.8008 L2048.3698,1321.4258 L2053.6198,1316.1758 L2050.9948,1313.6602 L2044.3958,1307.1706 L2050.9948,1300.5716 L2053.6198,1297.9466 L2048.3698,1292.806 L2045.8542,1295.431 L2039.3646,1301.9206 L2032.7656,1295.431 L2030.1406,1292.806 " fill="#282A3A" style="stroke:;stroke-width:0.0;stroke-dasharray:;"/><text fill="#282A3A" font-family="sans-serif" font-size="43.75" lengthAdjust="spacing" textLength="187.5" x="1771.875" y="1378.3264">client_id=</text><path d="M1967.6406,1347.8353 L1962.5,1352.9759 L1965.125,1355.6009 L1971.6146,1362.1999 L1965.125,1368.6895 L1962.5,1371.2051 L1967.6406,1376.4551 L1970.2656,1373.8301 L1976.8646,1367.2311 L1983.3542,1373.8301 L1985.8698,1376.4551 L1991.1198,1371.2051 L1988.4948,1368.6895 L1981.8958,1362.1999 L1988.4948,1355.6009 L1991.1198,1352.9759 L1985.8698,1347.8353 L1983.3542,1350.4603 L1976.8646,1356.9499 L1970.2656,1350.4603 L1967.6406,1347.8353 " fill="#282A3A" style="stroke:;stroke-width:0.0;stroke-dasharray:;"/><line style="stroke:#B3B5BD;stroke-width:3.125;" x1="2453.125" x2="2584.375" y1="1547.998" y2="1547.998"/><line style="stroke:#B3B5BD;stroke-width:3.125;" x1="2584.375" x2="2584.375" y1="1547.998" y2="1588.623"/><line style="stroke:#B3B5BD;stroke-width:3.125;" x1="2456.25" x2="2584.375" y1="1588.623" y2="1588.623"/><polygon fill="#B3B5BD" points="2487.5,1576.123,2456.25,1588.623,2487.5,1601.123,2475,1588.623" style="stroke:#B3B5BD;stroke-width:3.125;"/><text fill="#282A3A" font-family="sans-serif" font-size="43.75" lengthAdjust="spacing" textLength="625" x="2475" y="1477.1057">Validazione authorization_code,</text><text fill="#282A3A" font-family="sans-serif" font-size="43.75" lengthAdjust="spacing" textLength="437.5" x="2487.5" y="1532.135">redirect_uri e client_id</text><polygon fill="#B3B5BD" points="1784.375,1839.9902,1753.125,1852.4902,1784.375,1864.9902,1771.875,1852.4902" style="stroke:#B3B5BD;stroke-width:3.125;"/><line style="stroke:#B3B5BD;stroke-width:3.125;stroke-dasharray:2.0,2.0;" x1="1765.625" x2="2434.375" y1="1852.4902" y2="1852.4902"/><text fill="#282A3A" font-family="sans-serif" font-size="43.75" lengthAdjust="spacing" textLength="296.875" x="1803.125" y="1671.5393">access_token=</text><path d="M2108.2656,1641.0482 L2103.125,1646.1888 L2105.75,1648.8138 L2112.2396,1655.4128 L2105.75,1661.9023 L2103.125,1664.418 L2108.2656,1669.668 L2110.8906,1667.043 L2117.4896,1660.444 L2123.9792,1667.043 L2126.4948,1669.668 L2131.7448,1664.418 L2129.1198,1661.9023 L2122.5208,1655.4128 L2129.1198,1648.8138 L2131.7448,1646.1888 L2126.4948,1641.0482 L2123.9792,1643.6732 L2117.4896,1650.1628 L2110.8906,1643.6732 L2108.2656,1641.0482 " fill="#282A3A" style="stroke:;stroke-width:0.0;stroke-dasharray:;"/><text fill="#282A3A" font-family="sans-serif" font-size="43.75" lengthAdjust="spacing" textLength="378.125" x="1803.125" y="1726.5686">token_type=Bearer</text><text fill="#282A3A" font-family="sans-serif" font-size="43.75" lengthAdjust="spacing" textLength="225" x="1803.125" y="1781.5979">expires_in=</text><path d="M2036.3906,1751.1068 L2031.25,1756.2474 L2033.875,1758.8724 L2040.3646,1765.4714 L2033.875,1771.9609 L2031.25,1774.4766 L2036.3906,1779.7266 L2039.0156,1777.1016 L2045.6146,1770.5026 L2052.1042,1777.1016 L2054.6198,1779.7266 L2059.8698,1774.4766 L2057.2448,1771.9609 L2050.6458,1765.4714 L2057.2448,1758.8724 L2059.8698,1756.2474 L2054.6198,1751.1068 L2052.1042,1753.7318 L2045.6146,1760.2214 L2039.0156,1753.7318 L2036.3906,1751.1068 " fill="#282A3A" style="stroke:;stroke-width:0.0;stroke-dasharray:;"/><text fill="#282A3A" font-family="sans-serif" font-size="43.75" lengthAdjust="spacing" textLength="300" x="1803.125" y="1836.6272">refresh_token=</text><path d="M2111.3906,1806.1361 L2106.25,1811.2767 L2108.875,1813.9017 L2115.3646,1820.5007 L2108.875,1826.9902 L2106.25,1829.5059 L2111.3906,1834.7559 L2114.0156,1832.1309 L2120.6146,1825.5319 L2127.1042,1832.1309 L2129.6198,1834.7559 L2134.8698,1829.5059 L2132.2448,1826.9902 L2125.6458,1820.5007 L2132.2448,1813.9017 L2134.8698,1811.2767 L2129.6198,1806.1361 L2127.1042,1808.7611 L2120.6146,1815.2507 L2114.0156,1808.7611 L2111.3906,1806.1361 " fill="#282A3A" style="stroke:;stroke-width:0.0;stroke-dasharray:;"/><path d="M31.25,1899.3652 L225,1899.3652 L225,1927.4902 L193.75,1958.7402 L31.25,1958.7402 L31.25,1899.3652 " fill="#F3F4F8" style="stroke:#000000;stroke-width:3.125;"/><rect fill="none" height="328.2715" style="stroke:#000000;stroke-width:6.25;" width="1812.5" x="31.25" y="1899.3652"/><text fill="#282A3A" font-family="sans-serif" font-size="43.75" font-weight="bold" lengthAdjust="spacing" textLength="53.125" x="78.125" y="1947.9065">alt</text><text fill="#282A3A" font-family="sans-serif" font-size="43.75" font-weight="bold" lengthAdjust="spacing" textLength="521.875" x="271.875" y="1951.0315">[Authorization code OK]</text><polygon fill="#B3B5BD" points="271.875,2030.0781,240.625,2042.5781,271.875,2055.0781,259.375,2042.5781" style="stroke:#B3B5BD;stroke-width:3.125;"/><line style="stroke:#B3B5BD;stroke-width:3.125;stroke-dasharray:2.0,2.0;" x1="253.125" x2="1715.625" y1="2042.5781" y2="2042.5781"/><text fill="#282A3A" font-family="sans-serif" font-size="43.75" lengthAdjust="spacing" textLength="150" x="290.625" y="2026.7151">200 OK</text><line style="stroke:#000000;stroke-width:3.125;stroke-dasharray:2.0,2.0;" x1="31.25" x2="1843.75" y1="2070.7031" y2="2070.7031"/><text fill="#282A3A" font-family="sans-serif" font-size="43.75" font-weight="bold" lengthAdjust="spacing" textLength="631.25" x="46.875" y="2116.1194">[Authorization code scaduto]</text><polygon fill="#B3B5BD" points="271.875,2190.1367,240.625,2202.6367,271.875,2215.1367,259.375,2202.6367" style="stroke:#B3B5BD;stroke-width:3.125;"/><line style="stroke:#B3B5BD;stroke-width:3.125;stroke-dasharray:2.0,2.0;" x1="253.125" x2="1715.625" y1="2202.6367" y2="2202.6367"/><text fill="#282A3A" font-family="sans-serif" font-size="43.75" lengthAdjust="spacing" textLength="375" x="290.625" y="2186.7737">401 Not Authorized</text><text fill="#282A3A" font-family="sans-serif" font-size="43.75" lengthAdjust="spacing" textLength="0" x="1700" y="2338.678"/><polygon fill="#B3B5BD" points="1681.25,2453.3203,1712.5,2465.8203,1681.25,2478.3203,1693.75,2465.8203" style="stroke:#B3B5BD;stroke-width:3.125;"/><line style="stroke:#B3B5BD;stroke-width:3.125;" x1="237.5" x2="1700" y1="2465.8203" y2="2465.8203"/><text fill="#282A3A" font-family="sans-serif" font-size="43.75" lengthAdjust="spacing" textLength="575" x="259.375" y="2449.9573">Richiede accesso alla risorsa</text><line style="stroke:#B3B5BD;stroke-width:3.125;" x1="1765.625" x2="1896.875" y1="2564.5996" y2="2564.5996"/><line style="stroke:#B3B5BD;stroke-width:3.125;" x1="1896.875" x2="1896.875" y1="2564.5996" y2="2605.2246"/><line style="stroke:#B3B5BD;stroke-width:3.125;" x1="1768.75" x2="1896.875" y1="2605.2246" y2="2605.2246"/><polygon fill="#B3B5BD" points="1800,2592.7246,1768.75,2605.2246,1800,2617.7246,1787.5,2605.2246" style="stroke:#B3B5BD;stroke-width:3.125;"/><text fill="#282A3A" font-family="sans-serif" font-size="43.75" lengthAdjust="spacing" textLength="509.375" x="1787.5" y="2548.7366">Validazione access_token</text><polygon fill="#B3B5BD" points="3084.375,2785.2539,3115.625,2797.7539,3084.375,2810.2539,3096.875,2797.7539" style="stroke:#B3B5BD;stroke-width:3.125;"/><line style="stroke:#B3B5BD;stroke-width:3.125;" x1="1750" x2="3103.125" y1="2797.7539" y2="2797.7539"/><text fill="#282A3A" font-family="sans-serif" font-size="43.75" lengthAdjust="spacing" textLength="584.375" x="1771.875" y="2781.8909">Richiesta accesso alla risorsa</text><line style="stroke:#B3B5BD;stroke-width:3.125;" x1="3153.125" x2="3284.375" y1="2896.5332" y2="2896.5332"/><line style="stroke:#B3B5BD;stroke-width:3.125;" x1="3284.375" x2="3284.375" y1="2896.5332" y2="2937.1582"/><line style="stroke:#B3B5BD;stroke-width:3.125;" x1="3156.25" x2="3284.375" y1="2937.1582" y2="2937.1582"/><polygon fill="#B3B5BD" points="3187.5,2924.6582,3156.25,2937.1582,3187.5,2949.6582,3175,2937.1582" style="stroke:#B3B5BD;stroke-width:3.125;"/><text fill="#282A3A" font-family="sans-serif" font-size="43.75" lengthAdjust="spacing" textLength="340.625" x="3175" y="2880.6702">Recupera risorsa</text><polygon fill="#B3B5BD" points="1784.375,3023.4375,1753.125,3035.9375,1784.375,3048.4375,1771.875,3035.9375" style="stroke:#B3B5BD;stroke-width:3.125;"/><line style="stroke:#B3B5BD;stroke-width:3.125;stroke-dasharray:2.0,2.0;" x1="1765.625" x2="3134.375" y1="3035.9375" y2="3035.9375"/><text fill="#282A3A" font-family="sans-serif" font-size="43.75" lengthAdjust="spacing" textLength="150" x="1803.125" y="3020.0745">Risorsa</text><polygon fill="#B3B5BD" points="271.875,3122.2168,240.625,3134.7168,271.875,3147.2168,259.375,3134.7168" style="stroke:#B3B5BD;stroke-width:3.125;"/><line style="stroke:#B3B5BD;stroke-width:3.125;stroke-dasharray:2.0,2.0;" x1="253.125" x2="1731.25" y1="3134.7168" y2="3134.7168"/><text fill="#282A3A" font-family="sans-serif" font-size="43.75" lengthAdjust="spacing" textLength="150" x="290.625" y="3118.8538">Risorsa</text><!--MD5=[f2eaa5e774fbf645f6eba30c32e7efbe]
@startuml

!include styles.puml

actor "Resource Owner" as USER
participant "Client" as CLIENT
participant "Authorization Server" as AUTH
participant "Resource Server" as API

USER -> CLIENT: Richiesta di autenticazione
activate CLIENT
CLIENT - -> USER: Reidirect verso \n/authorize?response_type=code&client_id=<&x>&redirect_uri=<&x>&scope=<&x>
deactivate CLIENT
USER -> AUTH: GET /authorize?response_type=code&client_id=<&x>&redirect_uri=<&x>&scope=<&x>
activate AUTH
USER -> AUTH: Inserisce credentiali
USER -> AUTH: Fornisce i permessi richiesti
AUTH - -> USER: Redirect verso \n<b>redirect_uri</b>?code=<&x>
deactivate AUTH
USER -> CLIENT: GET <b>redirect_uri</b>?code=<&x>
activate CLIENT
CLIENT -> AUTH: POST /token \ngrant_type=authorization_code\ncode=<&x>\nredirect_uri=<&x>\nclient_id=<&x>
activate AUTH
AUTH -> AUTH: Validazione authorization_code,\n redirect_uri e client_id
AUTH - -> CLIENT: access_token=<&x>\ntoken_type=Bearer\nexpires_in=<&x>\nrefresh_token=<&x>
deactivate AUTH
alt Authorization code OK
CLIENT - -> USER: 200 OK
else Authorization code scaduto
CLIENT - -> USER: 401 Not Authorized
end
deactivate CLIENT

...  ...

USER -> CLIENT: Richiede accesso alla risorsa
activate CLIENT
CLIENT -> CLIENT: Validazione access_token
activate CLIENT
deactivate CLIENT

CLIENT -> API: Richiesta accesso alla risorsa
activate API
API -> API: Recupera risorsa
API - -> CLIENT: Risorsa
deactivate API
CLIENT - -> USER: Risorsa
deactivate CLIENT

@enduml

@startuml




skinparam backgroundcolor transparent

skinparam defaultFontColor #282a3a
skinparam defaultFontSize 14
skinParam defaultFontStyle plain

skinparam dpi 300

skinparam linetype ortho





skinparam Shadowing false

skinparam activity {
  BackgroundColor #f3f4f8
  BorderColor #9496a1
  DiamondBackgroundColor #f3f4f8
  DiamondBorderColor #9496a1
}

skinparam actor {
  BackgroundColor #ffffff
  BorderColor #9496a1
}

skinparam agent {
  BackgroundColor #f3f4f8
  BorderColor #9496a1
}

skinparam arrow {
  Color #b3b5bd
  FontColor #282a3a
}

skinparam artifact {
  BackgroundColor #f3f4f8
  BorderColor #9496a1
}

skinparam biddable {
  BackgroundColor #f3f4f8
  BorderColor #9496a1
}

skinparam boundary {
  BackgroundColor #f3f4f8
  BorderColor #9496a1
}

skinparam card {
  BackgroundColor #f3f4f8
  BorderColor #9496a1
}

skinparam class {
  BackgroundColor #f3f4f8
  BorderColor #9496a1
  FontStyle bold
  HeaderBackgroundColor #f3f4f8
}

skinparam cloud {
  BackgroundColor #ffffff
  BorderColor #9496a1
}

skinparam collections {
  BackgroundColor #ffffff
  BorderColor #9496a1
}

skinparam component {
  BackgroundColor #f3f4f8
  BorderColor #9496a1
  Style uml2  
}

skinparam control {
  BackgroundColor #f3f4f8
  BorderColor #9496a1
}

skinparam database {
  BackgroundColor #f3f4f8
  BorderColor #9496a1
}

skinparam designed {
  BackgroundColor #f3f4f8
  BorderColor #9496a1
}

skinparam domain {
  BackgroundColor #f3f4f8
  BorderColor #9496a1
}

skinparam entity {
  BackgroundColor #f3f4f8
  BorderColor #9496a1
}

skinparam file {
  BackgroundColor #f3f4f8
  BorderColor #9496a1
}

skinparam folder {
  BackgroundColor #ffffff
  BorderColor #9496a1
}

skinparam frame {
  BackgroundColor #ffffff
  BorderColor #9496a1
}

skinparam interface {
  BackgroundColor #f3f4f8
  BorderColor #9496a1
}

skinparam object {
  BackgroundColor #f3f4f8
  BorderColor #9496a1
  FontStyle bold
}

skinparam node {
  BackgroundColor #ffffff
  BorderColor #9496a1
}

skinparam note {
  BackgroundColor #FFCD00
  BorderColor #000000
}

skinparam package {
  BackgroundColor #ffffff
  BorderColor #9496a1
}

skinparam participant {
  BackgroundColor #f3f4f8
  BorderColor #9496a1
}

skinparam queue {
  BackgroundColor #f3f4f8
  BorderColor #9496a1
}

skinparam rectangle {
  BackgroundColor #ffffff
  BorderColor #9496a1
}

skinparam sequence {
  DividerBackgroundColor #ffffff
  DividerBorderColor #9496a1
  DividerFontStyle bold
  GroupBackgroundColor #f3f4f8
  GroupBodyBackgroundColor #ffffff
  GroupFontStyle bold
  GroupHeaderFontStyle bold
  LifeLineBackgroundColor #ffffff
  LifeLineBorderColor #9496a1
  ReferenceBackgroundColor #ffffff
  ReferenceHeaderBackgroundColor #f3f4f8
}

skinparam stack {
  BackgroundColor #f3f4f8
  BorderColor #9496a1
}

skinparam state {
  BackgroundColor #f3f4f8
  BorderColor #9496a1
  StartColor #9496a1
  EndColor #9496a1
}

skinparam enum {
  BackgroundColor f3f4f8
  ArrowColor b3b5bd
  BorderColor 9496a1
  FontColor 282a3a
}

skinparam storage {
  BackgroundColor #f3f4f8
  BorderColor #9496a1
}

skinparam title {
  FontSize 16
}

skinparam usecase {
  BackgroundColor #f3f4f8
  BorderColor #9496a1
}




actor "Resource Owner" as USER
participant "Client" as CLIENT
participant "Authorization Server" as AUTH
participant "Resource Server" as API

USER -> CLIENT: Richiesta di autenticazione
activate CLIENT
CLIENT - -> USER: Reidirect verso \n/authorize?response_type=code&client_id=<&x>&redirect_uri=<&x>&scope=<&x>
deactivate CLIENT
USER -> AUTH: GET /authorize?response_type=code&client_id=<&x>&redirect_uri=<&x>&scope=<&x>
activate AUTH
USER -> AUTH: Inserisce credentiali
USER -> AUTH: Fornisce i permessi richiesti
AUTH - -> USER: Redirect verso \n<b>redirect_uri</b>?code=<&x>
deactivate AUTH
USER -> CLIENT: GET <b>redirect_uri</b>?code=<&x>
activate CLIENT
CLIENT -> AUTH: POST /token \ngrant_type=authorization_code\ncode=<&x>\nredirect_uri=<&x>\nclient_id=<&x>
activate AUTH
AUTH -> AUTH: Validazione authorization_code,\n redirect_uri e client_id
AUTH - -> CLIENT: access_token=<&x>\ntoken_type=Bearer\nexpires_in=<&x>\nrefresh_token=<&x>
deactivate AUTH
alt Authorization code OK
CLIENT - -> USER: 200 OK
else Authorization code scaduto
CLIENT - -> USER: 401 Not Authorized
end
deactivate CLIENT

...  ...

USER -> CLIENT: Richiede accesso alla risorsa
activate CLIENT
CLIENT -> CLIENT: Validazione access_token
activate CLIENT
deactivate CLIENT

CLIENT -> API: Richiesta accesso alla risorsa
activate API
API -> API: Recupera risorsa
API - -> CLIENT: Risorsa
deactivate API
CLIENT - -> USER: Risorsa
deactivate CLIENT

@enduml

PlantUML version 1.2021.7(Sun May 23 14:40:07 CEST 2021)
(GPL source distribution)
Java Runtime: OpenJDK Runtime Environment
JVM: OpenJDK 64-Bit Server VM
Default Encoding: Cp1252
Language: it
Country: IT
--></g></svg>